<svg xmlns="http://www.w3.org/2000/svg" viewBox="0 0 64 64" fill="none">
  <rect width="64" height="64" rx="16" fill="#0A66C2"/>
  <path d="M18 25.5C18 21.91 20.91 19 24.5 19h15c3.59 0 6.5 2.91 6.5 6.5v13c0 3.59-2.91 6.5-6.5 6.5h-15c-3.59 0-6.5-2.91-6.5-6.5v-13Z" fill="#fff" fill-opacity="0.95"/>
  <circle cx="26" cy="28" r="4" fill="#0A66C2"/>
  <path d="M19 42l7.2-6.7c1.1-1 2.8-1 3.9 0l5.4 5 3.7-3.5c1-.9 2.5-.9 3.5 0L45 42v2.5c0 .8-.7 1.5-1.5 1.5h-23c-.8 0-1.5-.7-1.5-1.5V42Z" fill="#0A66C2"/>
</svg>
